# xmcd
#
# Track frame offsets:
#	150
#	20145
#	38082
#	51865
#	71065
#	88205
#	112597
#	135377
#	151367
#	164772
#	190000
#
# Disc length: 2867 seconds
#
# Revision: 3
# Processed by: cddbd v1.5.2PL0 Copyright (c) Steve Scherf et al.
# Submitted via: audiograbber 1.83.01
#
DISCID=900b310b
DTITLE=Louisiana Red - No Turn On Red
DYEAR=2005
DGENRE=Blues
TTITLE0=Red's Hobo Blues
TTITLE1=Freight Train to Ride
TTITLE2=I Been Down so Long
TTITLE3=September 11th Blues
TTITLE4=I Done Woke Up
TTITLE5=Cotton Pickin Blues
TTITLE6=Mary Dee Shuffle
TTITLE7=You Got to Move
TTITLE8=Rollin' Stone
TTITLE9=Red's New Dream
TTITLE10=Everybody Laughs at Me
EXTD=YEAR: 2005
EXTT0=
EXTT1=
EXTT2=
EXTT3=
EXTT4=
EXTT5=
EXTT6=
EXTT7=
EXTT8=
EXTT9=
EXTT10=
PLAYORDER=
